<?xml version="1.0" standalone="no"?>
<!DOCTYPE svg PUBLIC "-//W3C//DTD SVG 20010904//EN"
 "http://www.w3.org/TR/2001/REC-SVG-20010904/DTD/svg10.dtd">
<svg version="1.0" xmlns="http://www.w3.org/2000/svg"
 width="279.000000pt" height="279.000000pt" viewBox="0 0 279.000000 279.000000"
 preserveAspectRatio="xMidYMid meet">

<g transform="translate(0.000000,279.000000) scale(0.100000,-0.100000)"
fill="#000000" stroke="none">
<path d="M0 1395 l0 -1395 1395 0 1395 0 0 1395 0 1395 -1395 0 -1395 0 0
-1395z m1158 1284 c8 -12 12 -46 11 -85 -2 -75 7 -89 72 -114 23 -8 47 -23 53
-33 9 -15 5 -23 -24 -48 -89 -75 -99 -87 -106 -136 -3 -26 -11 -56 -16 -65
-12 -25 -70 -24 -93 2 -36 40 -82 32 -134 -24 -29 -31 -77 -35 -85 -8 -2 9 -7
40 -11 69 -7 55 -30 85 -75 98 -14 4 -31 12 -37 17 -25 20 -13 51 37 96 l50
45 0 83 c0 72 3 85 19 94 29 15 62 12 104 -10 50 -27 70 -25 119 10 49 36 97
40 116 9z m-339 -1525 c29 -20 51 -72 51 -118 0 -49 -32 -118 -70 -149 -37
-31 -102 -37 -138 -11 -82 57 -67 218 25 272 45 26 100 28 132 6z m403 -61
c76 -69 76 -209 1 -279 -38 -36 -71 -47 -120 -39 -49 7 -73 26 -102 80 -35 66
-22 161 29 210 56 54 149 67 192 28z m1305 -59 c22 -6 35 -30 53 -104 15 -58
35 -79 81 -86 21 -4 51 -15 68 -25 45 -27 41 -56 -17 -111 -57 -53 -64 -78
-55 -182 10 -119 -20 -142 -95 -73 -26 23 -60 57 -76 75 -35 37 -61 40 -116
12 -44 -23 -93 -26 -108 -7 -5 6 -15 31 -21 54 -6 23 -16 45 -21 48 -16 10
-143 7 -172 -4 -19 -7 -29 -7 -34 0 -4 8 -9 7 -15 -2 -6 -10 -9 -6 -9 12 0 20
16 41 63 84 34 32 67 67 74 79 7 12 12 52 13 89 0 76 12 107 39 107 10 0 49
-12 87 -26 83 -31 107 -28 175 26 55 43 53 43 86 34z m-437 -449 c0 -8 -4 -15
-10 -15 -5 0 -7 7 -4 15 4 8 8 15 10 15 2 0 4 -7 4 -15z m78 -70 c-3 -3 -9 2
-12 12 -6 14 -5 15 5 6 7 -7 10 -15 7 -18z m69 -127 c-3 -7 -5 -2 -5 12 0 14
2 19 5 13 2 -7 2 -19 0 -25z m108 -18 c-3 -5 -12 -10 -18 -10 -7 0 -6 4 3 10
19 12 23 12 15 0z"/>
<path d="M914 2404 c3 -9 6 -24 6 -35 0 -28 36 -59 69 -59 36 0 107 63 78 68
-9 2 -34 -10 -54 -27 -21 -17 -41 -31 -44 -31 -4 0 -15 23 -24 50 -9 28 -21
50 -27 50 -6 0 -7 -7 -4 -16z"/>
<path d="M710 1034 c-15 -37 -12 -52 9 -64 27 -14 48 -4 56 27 4 17 0 32 -11
44 -24 26 -43 24 -54 -7z"/>
<path d="M1102 988 c-17 -17 -15 -63 3 -78 20 -17 61 0 70 29 14 45 -40 82
-73 49z"/>
</g>
</svg>
